<?xml version="1.0" encoding="UTF-8"?>
<svg xmlns="http://www.w3.org/2000/svg" xmlns:xlink="http://www.w3.org/1999/xlink" viewBox="0 0 500 500" width="500px" height="500px">
<g id="surface236694855">
<path style=" stroke:none;fill-rule:nonzero;fill:rgb(0%,48.235294%,100%);fill-opacity:1;" d="M 334.0625 0 C 328.554688 0.507812 324.492188 5.429688 325 10.9375 C 325.507812 16.445312 330.429688 20.507812 335.9375 20 L 465.625 20 L 256.875 229.0625 C 253.90625 231.484375 252.539062 235.351562 253.398438 239.101562 C 254.257812 242.8125 257.1875 245.742188 260.898438 246.601562 C 264.648438 247.460938 268.515625 246.09375 270.9375 243.125 L 480 34.375 L 480 164.0625 C 479.960938 167.65625 481.835938 171.015625 484.960938 172.851562 C 488.085938 174.648438 491.914062 174.648438 495.039062 172.851562 C 498.164062 171.015625 500.039062 167.65625 500 164.0625 L 500 0 L 335.9375 0 C 335.625 0 335.3125 0 335 0 C 334.6875 0 334.375 0 334.0625 0 Z M 20 100 C 14.765625 100 9.414062 101.835938 5.625 105.625 C 1.835938 109.414062 0 114.765625 0 120 L 0 480 C 0 485.234375 1.835938 490.585938 5.625 494.375 C 9.414062 498.164062 14.765625 500 20 500 L 380 500 C 385.234375 500 390.585938 498.164062 394.375 494.375 C 398.164062 490.585938 400 485.234375 400 480 L 400 180 C 400.039062 176.40625 398.164062 173.046875 395.039062 171.210938 C 391.914062 169.414062 388.085938 169.414062 384.960938 171.210938 C 381.835938 173.046875 379.960938 176.40625 380 180 L 380 480 L 20 480 L 20 120 L 320 120 C 323.59375 120.039062 326.953125 118.164062 328.789062 115.039062 C 330.585938 111.914062 330.585938 108.085938 328.789062 104.960938 C 326.953125 101.835938 323.59375 99.960938 320 100 Z M 20 100 "/>
</g>
</svg>
